<svg width="48" height="48" viewBox="0 0 48 48" fill="none" xmlns="http://www.w3.org/2000/svg">
<path d="M19 10V7C19 5.89543 19.8954 5 21 5H41C42.1046 5 43 5.89543 43 7V29C43 30.1046 42.1046 31 41 31H37" stroke="#1C4CBA" stroke-width="2" stroke-linecap="round" stroke-linejoin="round"/>
<path d="M27 18H7C5.89543 18 5 18.8954 5 20V40C5 41.1046 5.89543 42 7 42H27C28.1046 42 29 41.1046 29 40V20C29 18.8954 28.1046 18 27 18Z" fill="#1C4CBA" stroke="#1C4CBA" stroke-width="2" stroke-linecap="round" stroke-linejoin="round"/>
<path d="M17 25V35" stroke="white" stroke-width="2" stroke-linecap="round" stroke-linejoin="round"/>
<path d="M12 30H22" stroke="white" stroke-width="2" stroke-linecap="round" stroke-linejoin="round"/>
</svg>
