<svg width="24" height="24" viewBox="0 0 24 24" fill="none" xmlns="http://www.w3.org/2000/svg">
<path d="M24 0H0V24H24V0Z" fill="white" fill-opacity="0.01"/>
<path fill-rule="evenodd" clip-rule="evenodd" d="M3 3C3 1.89543 3.89543 1 5 1H19C20.1046 1 21 1.89544 21 3V22C21 22.349 20.8181 22.6727 20.52 22.8542C20.2219 23.0357 19.8507 23.0486 19.5407 22.8883L12 18.9894L4.45928 22.8883C4.14928 23.0486 3.77814 23.0357 3.48004 22.8542C3.18194 22.6727 3 22.349 3 22V3ZM8 8C7.44772 8 7 8.44772 7 9C7 9.55229 7.44772 10 8 10H16C16.5523 10 17 9.55229 17 9C17 8.44772 16.5523 8 16 8H8Z" fill="white"/>
</svg>
