<svg width="24" height="24" viewBox="0 0 24 24" fill="none" xmlns="http://www.w3.org/2000/svg">
<path fill-rule="evenodd" clip-rule="evenodd" d="M12.6247 2.21913C12.2595 1.92696 11.7406 1.92696 11.3753 2.21913L1.37534 10.2191C0.94408 10.5641 0.874158 11.1934 1.21917 11.6247C1.56418 12.056 2.19347 12.1259 2.62473 11.7809L3.50004 11.0806V20.9913L3.5 21C3.5 21.4114 3.74839 21.7647 4.10336 21.9182C4.19519 21.958 4.29415 21.9843 4.39779 21.9948C4.4314 21.9982 4.46553 22 4.50004 22H9V15.1765C9 14.5267 9.44771 14 10 14H15C15.5523 14 16 14.5267 16 15.1765V22H19.5C19.6381 22 19.7696 21.972 19.8893 21.9214C20.2482 21.7696 20.5 21.4142 20.5 21V11.0806L21.3753 11.7809C21.8066 12.1259 22.4359 12.056 22.7809 11.6247C23.1259 11.1934 23.056 10.5641 22.6247 10.2191L12.6247 2.21913Z" fill="white"/>
</svg>
