<svg width="24" height="24" viewBox="0 0 24 24" fill="none" xmlns="http://www.w3.org/2000/svg">
<path d="M24 0H0V24H24V0Z" fill="white" fill-opacity="0.01"/>
<path fill-rule="evenodd" clip-rule="evenodd" d="M11.493 1.13806C11.8059 0.95398 12.1941 0.95398 12.507 1.13806L21.007 6.13791C21.3125 6.31758 21.5 6.64548 21.5 6.99985V16.9999C21.5 17.3543 21.3125 17.6822 21.007 17.8618L12.507 22.8619C12.1941 23.046 11.8059 23.046 11.493 22.8619L2.99297 17.8618C2.68754 17.6822 2.5 17.3543 2.5 16.9999V6.99985C2.5 6.64548 2.68755 6.31758 2.99299 6.13791L11.493 1.13806ZM13 11C13 10.4477 12.5523 10 12 10C11.4477 10 11 10.4477 11 11V15C11 15.5523 11.4477 16 12 16C12.5523 16 13 15.5523 13 15V11ZM16 8C16.5523 8 17 8.44772 17 9V15C17 15.5523 16.5523 16 16 16C15.4477 16 15 15.5523 15 15V9C15 8.44772 15.4477 8 16 8ZM9 13C9 12.4477 8.55228 12 8 12C7.44772 12 7 12.4477 7 13V15C7 15.5523 7.44772 16 8 16C8.55228 16 9 15.5523 9 15V13Z" fill="#8FA0C1"/>
</svg>
