<svg width="24" height="24" viewBox="0 0 24 24" fill="none" xmlns="http://www.w3.org/2000/svg">
<path d="M5 3L9 3.5L7.25 21L3 20.5L5 3Z" fill="#8FA0C1" stroke="#8FA0C1" stroke-width="2" stroke-linejoin="round"/>
<path fill-rule="evenodd" clip-rule="evenodd" d="M11 2C10.4477 2 10 2.44772 10 3V21C10 21.5523 10.4477 22 11 22H21C21.5523 22 22 21.5523 22 21V3C22 2.44772 21.5523 2 21 2H11ZM18.5 6.5C19.0523 6.5 19.5 6.94772 19.5 7.5V9C19.5 9.55228 19.0523 10 18.5 10C17.9477 10 17.5 9.55228 17.5 9V7.5C17.5 6.94772 17.9477 6.5 18.5 6.5ZM14.5 7.5C14.5 6.94772 14.0523 6.5 13.5 6.5C12.9477 6.5 12.5 6.94772 12.5 7.5V9C12.5 9.55228 12.9477 10 13.5 10C14.0523 10 14.5 9.55228 14.5 9V7.5Z" fill="#8FA0C1"/>
</svg>
