<svg width="18" height="22" viewBox="0 0 18 22" fill="none" xmlns="http://www.w3.org/2000/svg">
<path fill-rule="evenodd" clip-rule="evenodd" d="M0 2C0 0.89543 0.89543 0 2 0H16C17.1046 0 18 0.89544 18 2V21C18 21.349 17.8181 21.6727 17.52 21.8542C17.2219 22.0357 16.8507 22.0486 16.5407 21.8883L9 17.9894L1.45928 21.8883C1.14928 22.0486 0.778143 22.0357 0.480041 21.8542C0.181938 21.6727 0 21.349 0 21V2ZM5 7C4.44772 7 4 7.44772 4 8C4 8.55229 4.44772 9 5 9H13C13.5523 9 14 8.55229 14 8C14 7.44772 13.5523 7 13 7H5Z" fill="#8FA0C1"/>
</svg>
