<svg width="30" height="30" viewBox="0 0 30 30" fill="none" xmlns="http://www.w3.org/2000/svg">
<path d="M0 23.9239C0 22.6272 0.554113 21.245 1.66234 19.7772L2.55913 18.623L18.3513 0.454544H29.069V6.61045C29.069 8.16367 28.1868 10.009 26.4224 12.1465L10.324 29.5455H0V23.9239ZM0 4.21648C0 2.37826 0.233311 1.12428 0.699932 0.454544H14.0861L2.84347 12.1465H2.18729C0.729095 11.32 0 8.67666 0 4.21648ZM29.069 25.7621C29.069 27.6289 28.8503 28.89 28.4129 29.5455H15.2235L26.9036 17.1909C28.1139 17.8606 28.8139 19.4566 29.0034 21.9788C29.0617 22.7626 29.0909 23.589 29.0909 24.4583L29.069 25.7621Z" fill="#E6E9F1"/>
</svg>
